<?xml version="1.0" encoding="UTF-8"?>
<svg width="341px" height="227px" viewBox="0 0 341 227" version="1.1" xmlns="http://www.w3.org/2000/svg" xmlns:xlink="http://www.w3.org/1999/xlink">
    <!-- Generator: Sketch 54.1 (76490) - https://sketchapp.com -->
    <title>Rectangle</title>
    <desc>Created with Sketch.</desc>
    <g id="Page-1" stroke="none" stroke-width="1" fill="none" fill-rule="evenodd">
        <g id="Desktop-HD-Copy" transform="translate(-38.000000, -203.000000)" fill="#FFF58F" stroke="#000000" stroke-width="2">
            <path d="M40.5831695,208.650203 L51.9024553,228.344166 L40.7683991,233.354105 L55,237.934782 L55,328.697344 L41.0581191,338.85179 L55.4565536,338.85179 L45.9491024,363.546421 L65.7080474,344.660894 L65.7080474,360.250054 L81.7960197,346 L100.211194,346 L58.7055451,422.570719 L129.260533,346 L329.365123,346 L338.909512,370.573517 L344.225679,349.508782 L357.020435,359.777749 L353.32028,346 L370.346774,346 L356,333.845849 L356,243.470698 L375.2556,238.498469 L357.2817,231.921254 L370.086624,211.288139 L351.991564,221.932421 L349.962124,209.245924 L341.606537,225 L75.7734301,225 L69.5203985,206.640381 L65.3404919,221.795565 L40.5831695,208.650203 Z" id="Rectangle"></path>
        </g>
    </g>
</svg>