<?xml version="1.0" encoding="UTF-8"?>
<svg width="288px" height="207px" viewBox="0 0 288 207" version="1.1" xmlns="http://www.w3.org/2000/svg" xmlns:xlink="http://www.w3.org/1999/xlink">
    <!-- Generator: Sketch 54.1 (76490) - https://sketchapp.com -->
    <title>17366 copy</title>
    <desc>Created with Sketch.</desc>
    <g id="17366-copy" stroke="none" stroke-width="1" fill="none" fill-rule="evenodd">
        <polyline id="Fill-1712" fill="#05A7FF" points="94.5 203.51 94.51 203.501 94.5 203.49 94.49 203.501 94.5 203.51"></polyline>
        <polyline id="Fill-1713" fill="#05A7FF" points="98.5 203.51 98.51 203.501 98.5 203.49 98.49 203.501 98.5 203.51"></polyline>
        <polyline id="Fill-1714" fill="#05A7FF" points="102.5 203.52 102.52 203.5 102.5 203.48 102.48 203.5 102.5 203.52"></polyline>
        <polyline id="Fill-1715" fill="#05A7FF" points="105.5 203.52 105.52 203.5 105.5 203.48 105.48 203.5 105.5 203.52"></polyline>
        <polyline id="Fill-1716" fill="#05A7FF" points="109.5 203.53 109.53 203.501 109.5 203.47 109.47 203.501 109.5 203.53"></polyline>
        <polyline id="Fill-1717" fill="#05A7FF" points="112.5 203.53 112.53 203.501 112.5 203.47 112.47 203.501 112.5 203.53"></polyline>
        <polyline id="Fill-1718" fill="#05A7FF" points="116.5 203.5395 116.54 203.5005 116.5 203.4605 116.46 203.5005 116.5 203.5395"></polyline>
        <polyline id="Fill-1719" fill="#05A7FF" points="120.5 203.5395 120.54 203.5005 120.5 203.4605 120.46 203.5005 120.5 203.5395"></polyline>
        <polyline id="Fill-1720" fill="#05A7FF" points="123.5 203.5395 123.54 203.5005 123.5 203.4605 123.46 203.5005 123.5 203.5395"></polyline>
        <polyline id="Fill-1721" fill="#05A7FF" points="127.5 203.5395 127.54 203.5005 127.5 203.4605 127.46 203.5005 127.5 203.5395"></polyline>
        <polyline id="Fill-1722" fill="#05A7FF" points="130.5 203.5395 130.54 203.5005 130.5 203.4605 130.46 203.5005 130.5 203.5395"></polyline>
        <polyline id="Fill-1723" fill="#05A7FF" points="134.5 203.5395 134.54 203.5005 134.5 203.4605 134.46 203.5005 134.5 203.5395"></polyline>
        <polyline id="Fill-1724" fill="#05A7FF" points="138.5 203.5395 138.54 203.5005 138.5 203.4605 138.46 203.5005 138.5 203.5395"></polyline>
        <polyline id="Fill-1725" fill="#05A7FF" points="141.5 203.5395 141.54 203.5005 141.5 203.4605 141.46 203.5005 141.5 203.5395"></polyline>
        <polyline id="Fill-1726" fill="#05A7FF" points="145.5 203.5395 145.54 203.5005 145.5 203.4605 145.46 203.5005 145.5 203.5395"></polyline>
        <polyline id="Fill-1727" fill="#05A7FF" points="148.5 203.5395 148.54 203.5005 148.5 203.4605 148.46 203.5005 148.5 203.5395"></polyline>
        <polyline id="Fill-1728" fill="#05A7FF" points="152.5 203.53 152.53 203.501 152.5 203.47 152.47 203.501 152.5 203.53"></polyline>
        <polyline id="Fill-1729" fill="#05A7FF" points="156.5 203.52 156.52 203.5 156.5 203.48 156.48 203.5 156.5 203.52"></polyline>
        <polyline id="Fill-1730" fill="#05A7FF" points="159.5 203.52 159.52 203.5 159.5 203.48 159.48 203.5 159.5 203.52"></polyline>
        <polyline id="Fill-1731" fill="#05A7FF" points="163.5 203.52 163.52 203.5 163.5 203.48 163.48 203.5 163.5 203.52"></polyline>
        <polyline id="Fill-1732" fill="#05A7FF" points="166.5 203.51 166.51 203.501 166.5 203.49 166.49 203.501 166.5 203.51"></polyline>
        <polyline id="Fill-1733" fill="#05A7FF" points="170.5 203.51 170.51 203.501 170.5 203.49 170.49 203.501 170.5 203.51"></polyline>
        <polyline id="Fill-1747" fill="#05A7FF" points="128.5 6.51 128.51 6.5 128.5 6.49 128.49 6.5 128.5 6.51"></polyline>
        <polyline id="Fill-1748" fill="#05A7FF" points="131.5 6.51 131.51 6.5 131.5 6.49 131.49 6.5 131.5 6.51"></polyline>
        <polyline id="Fill-1749" fill="#05A7FF" points="135.5 6.51 135.51 6.5 135.5 6.49 135.49 6.5 135.5 6.51"></polyline>
        <polyline id="Fill-1750" fill="#05A7FF" points="139.5 6.51 139.51 6.5 139.5 6.49 139.49 6.5 139.5 6.51"></polyline>
        <polyline id="Fill-1751" fill="#05A7FF" points="142.5 6.51 142.51 6.5 142.5 6.49 142.49 6.5 142.5 6.51"></polyline>
        <polyline id="Fill-1752" fill="#05A7FF" points="146.501 6.51 146.51 6.5 146.501 6.49 146.49 6.5 146.501 6.51"></polyline>
        <polyline id="Fill-1753" fill="#05A7FF" points="149.501 6.51 149.51 6.5 149.501 6.49 149.49 6.5 149.501 6.51"></polyline>
        <polyline id="Fill-1754" fill="#05A7FF" points="153.501 6.51 153.51 6.5 153.501 6.49 153.49 6.5 153.501 6.51"></polyline>
        <polyline id="Fill-1755" fill="#05A7FF" points="157.501 6.51 157.51 6.5 157.501 6.49 157.49 6.5 157.501 6.51"></polyline>
        <polyline id="Fill-1756" fill="#05A7FF" points="160.501 6.51 160.51 6.5 160.501 6.49 160.49 6.5 160.501 6.51"></polyline>
        <polyline id="Fill-1757" fill="#05A7FF" points="164.501 6.51 164.51 6.5 164.501 6.49 164.49 6.5 164.501 6.51"></polyline>
        <polyline id="Fill-1758" fill="#05A7FF" points="168.5005 6.51 168.5105 6.5 168.5005 6.49 168.4895 6.5 168.5005 6.51"></polyline>
        <polyline id="Fill-1759" fill="#05A7FF" points="111.5005 10.51 111.5105 10.5 111.5005 10.49 111.4895 10.5 111.5005 10.51"></polyline>
        <polyline id="Fill-1760" fill="#05A7FF" points="115.5005 10.51 115.5105 10.5 115.5005 10.49 115.4895 10.5 115.5005 10.51"></polyline>
        <polyline id="Fill-1761" fill="#05A7FF" points="118.5 10.52 118.52 10.5 118.5 10.48 118.48 10.5 118.5 10.52"></polyline>
        <polyline id="Fill-1762" fill="#05A7FF" points="122.5005 10.52 122.5205 10.5 122.5005 10.48 122.4795 10.5 122.5005 10.52"></polyline>
        <polyline id="Fill-1763" fill="#05A7FF" points="126.5005 10.53 126.5305 10.5 126.5005 10.47 126.4695 10.5 126.5005 10.53"></polyline>
        <polyline id="Fill-1764" fill="#05A7FF" points="129.5005 10.53 129.5305 10.5 129.5005 10.47 129.4695 10.5 129.5005 10.53"></polyline>
        <polyline id="Fill-1765" fill="#05A7FF" points="133.5005 10.5405 133.5405 10.4995 133.5005 10.4595 133.4595 10.4995 133.5005 10.5405"></polyline>
        <polyline id="Fill-1766" fill="#05A7FF" points="137.5005 10.5405 137.5405 10.4995 137.5005 10.4595 137.4595 10.4995 137.5005 10.5405"></polyline>
        <polyline id="Fill-1767" fill="#05A7FF" points="140.5005 10.5405 140.5405 10.4995 140.5005 10.4595 140.4595 10.4995 140.5005 10.5405"></polyline>
        <polyline id="Fill-1768" fill="#05A7FF" points="144.5005 10.5405 144.5405 10.4995 144.5005 10.4595 144.4595 10.4995 144.5005 10.5405"></polyline>
        <polyline id="Fill-1769" fill="#05A7FF" points="148.5005 10.5405 148.5405 10.4995 148.5005 10.4595 148.4595 10.4995 148.5005 10.5405"></polyline>
        <polyline id="Fill-1770" fill="#05A7FF" points="151.5005 10.5405 151.5405 10.4995 151.5005 10.4595 151.4595 10.4995 151.5005 10.5405"></polyline>
        <polyline id="Fill-1771" fill="#05A7FF" points="155.5005 10.5405 155.5405 10.4995 155.5005 10.4595 155.4595 10.4995 155.5005 10.5405"></polyline>
        <polyline id="Fill-1772" fill="#05A7FF" points="159.5005 10.5405 159.5405 10.4995 159.5005 10.4595 159.4595 10.4995 159.5005 10.5405"></polyline>
        <polyline id="Fill-1773" fill="#05A7FF" points="162.5 10.5405 162.54 10.4995 162.5 10.4595 162.46 10.4995 162.5 10.5405"></polyline>
        <polyline id="Fill-1774" fill="#05A7FF" points="166.5 10.53 166.53 10.5 166.5 10.47 166.47 10.5 166.5 10.53"></polyline>
        <polyline id="Fill-1775" fill="#05A7FF" points="170.5 10.53 170.53 10.5 170.5 10.47 170.47 10.5 170.5 10.53"></polyline>
        <polyline id="Fill-1776" fill="#05A7FF" points="173.5 10.52 173.52 10.5 173.5 10.48 173.48 10.5 173.5 10.52"></polyline>
        <polyline id="Fill-1777" fill="#05A7FF" points="177.5 10.52 177.52 10.5 177.5 10.48 177.48 10.5 177.5 10.52"></polyline>
        <polyline id="Fill-1778" fill="#05A7FF" points="180.5 10.51 180.51 10.5 180.5 10.49 180.49 10.5 180.5 10.51"></polyline>
        <polyline id="Fill-1779" fill="#05A7FF" points="184.5 10.51 184.51 10.5 184.5 10.49 184.49 10.5 184.5 10.51"></polyline>
        <polyline id="Fill-1780" fill="#05A7FF" points="188.5 10.51 188.51 10.5 188.5 10.49 188.49 10.5 188.5 10.51"></polyline>
        <polyline id="Fill-1781" fill="#05A7FF" points="98.5 13.51 98.51 13.5 98.5 13.49 98.49 13.5 98.5 13.51"></polyline>
        <polyline id="Fill-1782" fill="#05A7FF" points="102.5 13.51 102.51 13.5 102.5 13.49 102.49 13.5 102.5 13.51"></polyline>
        <polyline id="Fill-1783" fill="#05A7FF" points="106.5 13.52 106.52 13.5 106.5 13.48 106.48 13.5 106.5 13.52"></polyline>
        <polyline id="Fill-1784" fill="#05A7FF" points="109.5 13.53 109.53 13.5 109.5 13.47 109.47 13.5 109.5 13.53"></polyline>
        <polyline id="Fill-1785" fill="#05A7FF" points="113.5 13.5405 113.54 13.4995 113.5 13.4595 113.46 13.4995 113.5 13.5405"></polyline>
        <polyline id="Fill-1786" fill="#05A7FF" points="117.4995 13.5505 117.5505 13.4995 117.4995 13.4495 117.4495 13.4995 117.4995 13.5505"></polyline>
        <polyline id="Fill-1787" fill="#05A7FF" points="120.4995 13.5505 120.5505 13.4995 120.4995 13.4495 120.4495 13.4995 120.4995 13.5505"></polyline>
        <polyline id="Fill-1788" fill="#05A7FF" points="124.5 13.5605 124.561 13.4995 124.5 13.4395 124.439 13.4995 124.5 13.5605"></polyline>
        <polyline id="Fill-1789" fill="#05A7FF" points="128.4995 13.571 128.5705 13.5 128.4995 13.429 128.4295 13.5 128.4995 13.571"></polyline>
        <polyline id="Fill-1790" fill="#05A7FF" points="131.5 13.5805 131.581 13.4995 131.5 13.4195 131.419 13.4995 131.5 13.5805"></polyline>
        <polyline id="Fill-1791" fill="#05A7FF" points="135.5 13.5805 135.581 13.4995 135.5 13.4195 135.419 13.4995 135.5 13.5805"></polyline>
        <polyline id="Fill-1792" fill="#05A7FF" points="139.5 13.591 139.591 13.5 139.5 13.409 139.409 13.5 139.5 13.591"></polyline>
        <polyline id="Fill-1793" fill="#05A7FF" points="142.5 13.591 142.591 13.5 142.5 13.409 142.409 13.5 142.5 13.591"></polyline>
        <polyline id="Fill-1794" fill="#05A7FF" points="146.501 13.591 146.591 13.5 146.501 13.409 146.409 13.5 146.501 13.591"></polyline>
        <polyline id="Fill-1795" fill="#05A7FF" points="149.501 13.591 149.591 13.5 149.501 13.409 149.409 13.5 149.501 13.591"></polyline>
        <polyline id="Fill-1796" fill="#05A7FF" points="153.501 13.591 153.591 13.5 153.501 13.409 153.409 13.5 153.501 13.591"></polyline>
        <polyline id="Fill-1797" fill="#05A7FF" points="157.5005 13.5805 157.5805 13.4995 157.5005 13.4195 157.4195 13.4995 157.5005 13.5805"></polyline>
        <polyline id="Fill-1798" fill="#05A7FF" points="160.5005 13.5805 160.5805 13.4995 160.5005 13.4195 160.4195 13.4995 160.5005 13.5805"></polyline>
        <polyline id="Fill-1799" fill="#05A7FF" points="164.5005 13.571 164.5705 13.5 164.5005 13.429 164.4295 13.5 164.5005 13.571"></polyline>
        <polyline id="Fill-1800" fill="#05A7FF" points="168.5005 13.571 168.5705 13.5 168.5005 13.429 168.4295 13.5 168.5005 13.571"></polyline>
        <polyline id="Fill-1801" fill="#05A7FF" points="171.5005 13.5605 171.5605 13.4995 171.5005 13.4395 171.4395 13.4995 171.5005 13.5605"></polyline>
        <polyline id="Fill-1802" fill="#05A7FF" points="175.5005 13.5505 175.5505 13.4995 175.5005 13.4495 175.4495 13.4995 175.5005 13.5505"></polyline>
        <polyline id="Fill-1803" fill="#05A7FF" points="179.5005 13.5405 179.5405 13.4995 179.5005 13.4595 179.4595 13.4995 179.5005 13.5405"></polyline>
        <polyline id="Fill-1804" fill="#05A7FF" points="182.5005 13.5405 182.5405 13.4995 182.5005 13.4595 182.4595 13.4995 182.5005 13.5405"></polyline>
        <polyline id="Fill-1805" fill="#05A7FF" points="186.5005 13.53 186.5305 13.5 186.5005 13.47 186.4695 13.5 186.5005 13.53"></polyline>
        <polyline id="Fill-1806" fill="#05A7FF" points="190.5005 13.52 190.5205 13.5 190.5005 13.48 190.4795 13.5 190.5005 13.52"></polyline>
        <polyline id="Fill-1807" fill="#05A7FF" points="193.5 13.51 193.51 13.5 193.5 13.49 193.49 13.5 193.5 13.51"></polyline>
        <polyline id="Fill-1808" fill="#05A7FF" points="197.5 13.51 197.51 13.5 197.5 13.49 197.49 13.5 197.5 13.51"></polyline>
        <polyline id="Fill-2426" fill="#05A7FF" points="250.5 61.5205 250.52 61.5005 250.5 61.4795 250.48 61.5005 250.5 61.5205"></polyline>
        <polyline id="Fill-2484" fill="#05A7FF" points="252.5 64.51 252.51 64.5 252.5 64.49 252.49 64.5 252.5 64.51"></polyline>
        <polyline id="Fill-2541" fill="#05A7FF" points="250.5 68.5305 250.53 68.4995 250.5 68.4695 250.47 68.4995 250.5 68.5305"></polyline>
        <polyline id="Fill-2542" fill="#05A7FF" points="253.5 68.51 253.51 68.499 253.5 68.49 253.49 68.499 253.5 68.51"></polyline>
        <polyline id="Fill-2601" fill="#05A7FF" points="252.5 72.51 252.51 72.5 252.5 72.49 252.49 72.5 252.5 72.51"></polyline>
        <polyline id="Fill-2659" fill="#05A7FF" points="250.5005 75.5405 250.5405 75.5005 250.5005 75.4595 250.4595 75.5005 250.5005 75.5405"></polyline>
        <polyline id="Fill-2660" fill="#05A7FF" points="253.5 75.51 253.51 75.5 253.5 75.49 253.49 75.5 253.5 75.51"></polyline>
        <polyline id="Fill-2719" fill="#05A7FF" points="252.4995 79.52 252.5205 79.5 252.4995 79.48 252.4795 79.5 252.4995 79.52"></polyline>
        <polyline id="Fill-2777" fill="#05A7FF" points="250.5005 83.54 250.5405 83.5 250.5005 83.46 250.4595 83.5 250.5005 83.54"></polyline>
        <polyline id="Fill-2778" fill="#05A7FF" points="253.5 83.52 253.52 83.5 253.5 83.48 253.48 83.5 253.5 83.52"></polyline>
        <polyline id="Fill-2837" fill="#05A7FF" points="252.5 86.51 252.51 86.5 252.5 86.49 252.49 86.5 252.5 86.51"></polyline>
        <polyline id="Fill-2895" fill="#05A7FF" points="250.5 90.53 250.53 90.5 250.5 90.47 250.47 90.5 250.5 90.53"></polyline>
        <polyline id="Fill-2896" fill="#05A7FF" points="253.5 90.51 253.51 90.5 253.5 90.49 253.49 90.5 253.5 90.51"></polyline>
        <polyline id="Fill-2954" fill="#05A7FF" points="252.5 93.51 252.51 93.5 252.5 93.49 252.49 93.5 252.5 93.51"></polyline>
        <polyline id="Fill-3011" fill="#05A7FF" points="250.5 97.52 250.52 97.5 250.5 97.48 250.48 97.5 250.5 97.52"></polyline>
        <polyline id="Fill-3012" fill="#05A7FF" points="253.5 97.51 253.51 97.5 253.5 97.49 253.49 97.5 253.5 97.51"></polyline>
        <polyline id="Fill-3125" fill="#05A7FF" points="250.5 104.51 250.51 104.5 250.5 104.49 250.49 104.5 250.5 104.51"></polyline>
        <path d="M142.470584,151.732307 L142.286923,151.718348 L142.470584,151.732307 M81.2767153,157.171356 L95.936613,130.918351 C95.8457809,130.912369 95.7539507,130.908381 95.6621204,130.904392 L20,126.753566 L81.693944,108.758343 L59.8952441,98.8454161 L92.161592,91.4710439 L74.9603926,72.9663152 L105.971062,74.9036334 L107.406408,73.3362303 L106.091839,54.9591273 L124.849161,65.1921157 L126.237594,63.6685839 L128.159042,64.0604347 L137.883065,40 L150.965878,65.2439636 L151.104622,65.1661917 L153.83158,65.1253116 C154.040195,65.0166303 154.341637,64.8451333 154.741897,64.5819053 L181.760946,46.844925 L176.281077,76.7322703 C177.365073,76.4820043 178.662674,76.1410044 180.201829,75.6793583 L257.247391,52.6349438 L199.914385,93.1909995 L258,97.632972 L207.274778,113.851406 L232.291528,123.051424 L192.114805,133.318313 C191.449035,133.488813 191.087703,133.645354 190.932989,133.723125 L189.109361,134.627473 L187.085103,134.990409 C186.83257,135.03428 186.608983,135.081143 186.404362,135.126011 L194.584239,160.329095 L170.476808,151.262685 L168.962607,152.97267 L165.67768,152.545921 L157.615585,164.318395 L147.755813,151.90181 L147.447383,152.107208 L144.691478,151.900813 L118.484927,174 L121.634105,144.603216 C120.38741,144.945213 118.88918,145.408853 117.101485,146.03402 L116.041444,146.358069 C115.278854,146.561473 114.478334,146.794788 113.644875,147.054028 L81.2767153,157.171356" id="Fill-3494" fill="#507E13"></path>
        <path d="M100.433858,133.119844 C101.549419,130.995409 101.872581,129.739379 101.961626,129.137405 C101.187237,128.751782 99.1512136,127.968516 94.5428972,127.69908 L45.9994971,124.864498 L92.4458431,110.44719 C93.1031736,110.243861 93.7044758,110.04554 94.2547524,109.856234 L73.1111246,99.6246933 L97.0171409,93.8092917 C97.5093883,93.690099 97.7114899,93.5939435 97.7124904,93.5919403 L99.6214499,92.140594 C99.5434107,92.0504482 99.46237,91.9572976 99.3793282,91.8611422 L85.3742887,75.8242158 L106.60496,77.236499 C106.807062,77.2485184 106.974146,77.2535265 107.116217,77.2545282 L108.915121,75.1691568 L111.940642,75.1962005 L110.889114,59.5268684 L125.259337,67.9394688 L125.351383,67.9935562 L127.588507,65.3803315 L130.923184,66.1055039 L130.933189,66.0764569 L138.178831,47.0016193 L147.108319,65.3452749 C148.029782,67.2353305 148.72113,68.0576599 149.052296,68.3801813 C149.348445,68.2890339 149.859702,68.083702 150.628088,67.6299684 L152.635097,66.4430496 L154.967269,66.4069913 C154.964268,66.4049881 155.866721,66.3048261 157.911749,64.8745138 L175.247463,52.763935 L171.653657,73.6166469 C171.035346,77.2134618 171.18242,79.041417 171.328493,79.8176719 C172.35601,79.9609035 175.405542,80.0019699 182.621169,77.7032536 L232.054017,61.9688163 L190.596178,93.1782715 C189.256505,94.1879038 188.146947,95.0693287 187.227485,95.8345659 C188.660205,96.02888 190.419089,96.2201893 192.583177,96.3974759 L234.999497,99.8500576 L194.704243,113.561224 C194.244012,113.717477 193.808793,113.870724 193.399587,114.017962 L217.635769,123.503297 L191.859813,130.514632 C190.962362,130.759027 190.189974,131.0515 189.562658,131.382034 L188.39207,132.000033 L187.094418,132.248435 C183.893809,132.856418 182.316016,133.893094 181.90581,134.657329 C181.526619,135.366476 181.606659,136.804801 182.122919,138.498539 L187.494619,156.115019 L170.411032,149.275963 C169.992822,149.109694 169.647648,148.992505 169.369508,148.908369 L167.301469,151.298232 L163.506561,150.892576 L157.509547,160.211642 L149.906726,150.019164 C149.420481,149.368112 149.04029,148.949435 148.769154,148.684006 C148.689114,148.734087 148.60207,148.793182 148.509023,148.862294 L145.841682,150.757358 L143.001255,150.49293 C142.73312,150.628149 142.153829,150.975711 141.247373,151.790027 L124.298854,167.001619 L126.581001,144.328965 C126.714068,142.99581 126.688055,142.118391 126.631026,141.577517 C125.354384,141.524431 121.898647,141.76482 114.401879,144.553328 L113.719536,144.773684 C112.862105,145.016076 111.965655,145.294526 111.027183,145.60603 L90.2587438,152.5152 L100.433858,133.119844 Z" id="Fill-3495" fill="#A0F82E"></path>
        <polyline id="Fill-3496" fill="#0A0B09" points="35 177.830143 79 141 43.9866215 183 35 177.830143"></polyline>
        <polyline id="Fill-3497" fill="#0A0B09" points="36 158.088776 67 147 38.6423909 163 36 158.088776"></polyline>
        <polyline id="Fill-3498" fill="#0A0B09" points="230 19.3137304 196 58 223.667195 14 230 19.3137304"></polyline>
        <polyline id="Fill-3499" fill="#0A0B09" points="228 39 202 58 226.647663 46.0924522 228 39"></polyline>
        <polyline id="Fill-3500" fill="#0A0B09" points="212 148 244.98005 177 246 166.317381 212 148"></polyline>
        <polyline id="Fill-3501" fill="#0A0B09" points="210 154 219.062252 174.012018 225 176 224.427042 174.18027 210 154"></polyline>
        <polyline id="Fill-3502" fill="#0A0B09" points="83 64 50.0209272 35 49 45.6829904 83 64"></polyline>
        <polyline id="Fill-3503" fill="#0A0B09" points="85 57 75.9377478 36.987982 70 35 70.5739492 36.8197296 85 57"></polyline>
    </g>
</svg>