<?xml version="1.0" encoding="UTF-8"?>
<svg width="206px" height="138px" viewBox="0 0 206 138" version="1.1" xmlns="http://www.w3.org/2000/svg" xmlns:xlink="http://www.w3.org/1999/xlink">
    <!-- Generator: Sketch 54.1 (76490) - https://sketchapp.com -->
    <title>17366 copy 3</title>
    <desc>Created with Sketch.</desc>
    <g id="17366-copy-3" stroke="none" stroke-width="1" fill="none" fill-rule="evenodd">
        <path d="M112.236414,31.9595892 L133.307985,18.6770126 L139.701463,31.9595892 L166.571779,15 L163.018193,43.0225989 L188.402329,44.716476 L173.734766,62.4005906 L195,69.0900189 L168.803654,80.6028876 L177.187123,97.112241 L146.095684,95.1396286 L149.018927,110.899927 L117.667031,103.846453 L112.236414,115.142247 L101.48572,107.182231 C88.3780422,121.612575 73.3524154,129.551831 56.4088394,131 C56.4088394,131 61.4050575,123.831513 71.3974937,109.494539 L64.8807531,112.535468 L64.6633022,103.846453 L44.4611047,112.101318 L46.1992037,96.4606403 L25.3450305,96.4606403 L35.9895679,80.6028876 L8,67.7718333 L37.7615582,58.7705098 L27.8904045,43.0225989 L52.0643457,42.5880729 L47.6530016,27.6046851 L79.0843628,33.681607 C88.8760797,21.2272023 93.7719382,15 93.7719382,15 L112.236414,31.9595892 Z" id="Fill-7064" fill="#000000"></path>
        <path d="M81.420664,38.5001885 L53.9219573,33.0688745 L58.7393012,45.9427931 L33.4485281,46.5461049 L43.283766,61.2299587 L20,68.471208 L43.8861692,77.1208132 L32.8461249,92.2070006 L51.7140237,91 L48.3016601,106.086187 L68.1730625,99.2472716 L68.9760158,106.488521 C75.6667921,103.001882 79.0121802,101.258562 79.0121802,101.258562 C79.0121802,110.511479 64.3595984,124.391043 63.3560948,126 C74.596313,123.988709 91.2020239,116.424682 100.033758,101.941806 C100.033758,101.941806 103.798582,104.928512 111.328231,110.901923 L116.145575,97.8392928 L145.049262,106.086187 L142.038751,90.7990218 L171.544465,91.804667 L165.121591,78.9311255 L187,69.4772304 L167.329524,63.4426046 L179.573622,47.9540837 L159.70222,45.9427931 L162.51218,22.4079788 L138.224911,37.0918327 L131.60111,22.6093341 L111.328231,35.2815203 C100.489238,25.7605068 95.0697423,21 95.0697423,21 L81.420664,38.5001885 Z" id="Fill-7065" fill="#FFFFFF"></path>
    </g>
</svg>